<mxfile host="Electron" modified="2024-02-29T04:04:19.709Z" agent="Mozilla/5.0 (Windows NT 10.0; Win64; x64) AppleWebKit/537.36 (KHTML, like Gecko) draw.io/23.1.5 Chrome/120.0.6099.109 Electron/28.1.0 Safari/537.36" etag="bIlWg4T-r8KM7hV3ck0U" version="23.1.5" type="device">
  <diagram id="C5RBs43oDa-KdzZeNtuy" name="Page-1">
    <mxGraphModel dx="713" dy="417" grid="1" gridSize="10" guides="1" tooltips="1" connect="1" arrows="1" fold="1" page="1" pageScale="1" pageWidth="827" pageHeight="1169" math="0" shadow="0">
      <root>
        <mxCell id="WIyWlLk6GJQsqaUBKTNV-0" />
        <mxCell id="WIyWlLk6GJQsqaUBKTNV-1" parent="WIyWlLk6GJQsqaUBKTNV-0" />
        <mxCell id="kV4v41PONF_NpgCTsSex-0" value="Administrador" style="shape=umlActor;verticalLabelPosition=bottom;verticalAlign=top;html=1;outlineConnect=0;" vertex="1" parent="WIyWlLk6GJQsqaUBKTNV-1">
          <mxGeometry x="550" y="370" width="30" height="60" as="geometry" />
        </mxCell>
        <mxCell id="kV4v41PONF_NpgCTsSex-1" value="Usuario&lt;div&gt;&lt;br/&gt;&lt;/div&gt;" style="shape=umlActor;verticalLabelPosition=bottom;verticalAlign=top;html=1;outlineConnect=0;" vertex="1" parent="WIyWlLk6GJQsqaUBKTNV-1">
          <mxGeometry x="150" y="370" width="30" height="60" as="geometry" />
        </mxCell>
        <mxCell id="kV4v41PONF_NpgCTsSex-3" value="Registo Libro" style="ellipse;whiteSpace=wrap;html=1;" vertex="1" parent="WIyWlLk6GJQsqaUBKTNV-1">
          <mxGeometry x="520" y="210" width="90" height="50" as="geometry" />
        </mxCell>
        <mxCell id="kV4v41PONF_NpgCTsSex-5" value="Registro Usuario" style="ellipse;whiteSpace=wrap;html=1;" vertex="1" parent="WIyWlLk6GJQsqaUBKTNV-1">
          <mxGeometry x="120" y="225" width="90" height="50" as="geometry" />
        </mxCell>
        <mxCell id="kV4v41PONF_NpgCTsSex-7" value="Préstamo Libros" style="ellipse;whiteSpace=wrap;html=1;" vertex="1" parent="WIyWlLk6GJQsqaUBKTNV-1">
          <mxGeometry x="280" y="140" width="90" height="50" as="geometry" />
        </mxCell>
        <mxCell id="kV4v41PONF_NpgCTsSex-9" value="Devolución Libros" style="ellipse;whiteSpace=wrap;html=1;" vertex="1" parent="WIyWlLk6GJQsqaUBKTNV-1">
          <mxGeometry x="280" y="360" width="90" height="50" as="geometry" />
        </mxCell>
        <mxCell id="kV4v41PONF_NpgCTsSex-11" value="Multa" style="ellipse;whiteSpace=wrap;html=1;" vertex="1" parent="WIyWlLk6GJQsqaUBKTNV-1">
          <mxGeometry x="280" y="430" width="90" height="50" as="geometry" />
        </mxCell>
        <mxCell id="kV4v41PONF_NpgCTsSex-14" value="Gestión Libros y usuarios" style="ellipse;whiteSpace=wrap;html=1;" vertex="1" parent="WIyWlLk6GJQsqaUBKTNV-1">
          <mxGeometry x="620" y="320" width="90" height="50" as="geometry" />
        </mxCell>
        <mxCell id="kV4v41PONF_NpgCTsSex-20" value="Busqueda Libros" style="ellipse;whiteSpace=wrap;html=1;" vertex="1" parent="WIyWlLk6GJQsqaUBKTNV-1">
          <mxGeometry x="220" y="275" width="90" height="50" as="geometry" />
        </mxCell>
        <mxCell id="kV4v41PONF_NpgCTsSex-23" value="" style="endArrow=none;html=1;rounded=0;" edge="1" parent="WIyWlLk6GJQsqaUBKTNV-1" source="kV4v41PONF_NpgCTsSex-1" target="kV4v41PONF_NpgCTsSex-5">
          <mxGeometry width="50" height="50" relative="1" as="geometry">
            <mxPoint x="160" y="360" as="sourcePoint" />
            <mxPoint x="170" y="310" as="targetPoint" />
          </mxGeometry>
        </mxCell>
        <mxCell id="kV4v41PONF_NpgCTsSex-24" value="" style="endArrow=none;html=1;rounded=0;entryX=0;entryY=0.5;entryDx=0;entryDy=0;" edge="1" parent="WIyWlLk6GJQsqaUBKTNV-1" source="kV4v41PONF_NpgCTsSex-1" target="kV4v41PONF_NpgCTsSex-9">
          <mxGeometry width="50" height="50" relative="1" as="geometry">
            <mxPoint x="190" y="370" as="sourcePoint" />
            <mxPoint x="460" y="320" as="targetPoint" />
          </mxGeometry>
        </mxCell>
        <mxCell id="kV4v41PONF_NpgCTsSex-25" value="" style="endArrow=none;html=1;rounded=0;exitX=0.5;exitY=0;exitDx=0;exitDy=0;entryX=0.001;entryY=0.406;entryDx=0;entryDy=0;entryPerimeter=0;" edge="1" parent="WIyWlLk6GJQsqaUBKTNV-1" source="kV4v41PONF_NpgCTsSex-5" target="kV4v41PONF_NpgCTsSex-7">
          <mxGeometry width="50" height="50" relative="1" as="geometry">
            <mxPoint x="410" y="370" as="sourcePoint" />
            <mxPoint x="460" y="320" as="targetPoint" />
            <Array as="points">
              <mxPoint x="165" y="160" />
            </Array>
          </mxGeometry>
        </mxCell>
        <mxCell id="kV4v41PONF_NpgCTsSex-29" value="" style="endArrow=none;html=1;rounded=0;elbow=vertical;entryX=0.5;entryY=0;entryDx=0;entryDy=0;entryPerimeter=0;" edge="1" parent="WIyWlLk6GJQsqaUBKTNV-1" source="kV4v41PONF_NpgCTsSex-3" target="kV4v41PONF_NpgCTsSex-0">
          <mxGeometry width="50" height="50" relative="1" as="geometry">
            <mxPoint x="655" y="280" as="sourcePoint" />
            <mxPoint x="660" y="260" as="targetPoint" />
          </mxGeometry>
        </mxCell>
        <mxCell id="kV4v41PONF_NpgCTsSex-31" value="" style="endArrow=none;html=1;rounded=0;elbow=vertical;entryX=0.5;entryY=0;entryDx=0;entryDy=0;exitX=0.5;exitY=1;exitDx=0;exitDy=0;" edge="1" parent="WIyWlLk6GJQsqaUBKTNV-1" source="kV4v41PONF_NpgCTsSex-9" target="kV4v41PONF_NpgCTsSex-11">
          <mxGeometry width="50" height="50" relative="1" as="geometry">
            <mxPoint x="450" y="490" as="sourcePoint" />
            <mxPoint x="500" y="440" as="targetPoint" />
          </mxGeometry>
        </mxCell>
        <mxCell id="kV4v41PONF_NpgCTsSex-32" value="" style="endArrow=none;html=1;rounded=0;elbow=vertical;exitX=1;exitY=0.3333333333333333;exitDx=0;exitDy=0;exitPerimeter=0;" edge="1" parent="WIyWlLk6GJQsqaUBKTNV-1" source="kV4v41PONF_NpgCTsSex-0" target="kV4v41PONF_NpgCTsSex-14">
          <mxGeometry width="50" height="50" relative="1" as="geometry">
            <mxPoint x="680" y="370" as="sourcePoint" />
            <mxPoint x="730" y="320" as="targetPoint" />
          </mxGeometry>
        </mxCell>
        <mxCell id="kV4v41PONF_NpgCTsSex-34" value="" style="endArrow=none;html=1;rounded=0;elbow=vertical;entryX=0.228;entryY=0.887;entryDx=0;entryDy=0;entryPerimeter=0;" edge="1" parent="WIyWlLk6GJQsqaUBKTNV-1" source="kV4v41PONF_NpgCTsSex-1" target="kV4v41PONF_NpgCTsSex-20">
          <mxGeometry width="50" height="50" relative="1" as="geometry">
            <mxPoint x="190" y="370" as="sourcePoint" />
            <mxPoint x="240" y="320" as="targetPoint" />
          </mxGeometry>
        </mxCell>
        <mxCell id="kV4v41PONF_NpgCTsSex-35" value="Historial" style="ellipse;whiteSpace=wrap;html=1;" vertex="1" parent="WIyWlLk6GJQsqaUBKTNV-1">
          <mxGeometry x="390" y="250" width="90" height="50" as="geometry" />
        </mxCell>
        <mxCell id="kV4v41PONF_NpgCTsSex-36" value="" style="endArrow=none;html=1;rounded=0;elbow=vertical;entryX=0.5;entryY=1;entryDx=0;entryDy=0;" edge="1" parent="WIyWlLk6GJQsqaUBKTNV-1" source="kV4v41PONF_NpgCTsSex-1" target="kV4v41PONF_NpgCTsSex-35">
          <mxGeometry width="50" height="50" relative="1" as="geometry">
            <mxPoint x="410" y="370" as="sourcePoint" />
            <mxPoint x="460" y="320" as="targetPoint" />
            <Array as="points">
              <mxPoint x="160" y="520" />
              <mxPoint x="435" y="520" />
            </Array>
          </mxGeometry>
        </mxCell>
        <mxCell id="kV4v41PONF_NpgCTsSex-37" value="" style="endArrow=none;html=1;rounded=0;elbow=vertical;entryX=0;entryY=0.3333333333333333;entryDx=0;entryDy=0;entryPerimeter=0;exitX=1;exitY=1;exitDx=0;exitDy=0;" edge="1" parent="WIyWlLk6GJQsqaUBKTNV-1" source="kV4v41PONF_NpgCTsSex-35" target="kV4v41PONF_NpgCTsSex-0">
          <mxGeometry width="50" height="50" relative="1" as="geometry">
            <mxPoint x="410" y="370" as="sourcePoint" />
            <mxPoint x="460" y="320" as="targetPoint" />
          </mxGeometry>
        </mxCell>
      </root>
    </mxGraphModel>
  </diagram>
</mxfile>
